<svg width="7" height="12" viewBox="0 0 7 12" fill="none" xmlns="http://www.w3.org/2000/svg">
<path d="M0.352261 6.33792L6.38976 11.0535C6.40554 11.066 6.4245 11.0737 6.44446 11.0758C6.46443 11.0779 6.48459 11.0744 6.50263 11.0656C6.52067 11.0568 6.53586 11.0431 6.54646 11.026C6.55705 11.0089 6.56262 10.9892 6.56253 10.9692L6.56253 9.9339C6.56253 9.86828 6.53173 9.80533 6.48083 9.76515L1.6594 6.00042L6.48083 2.23569C6.53306 2.19551 6.56253 2.13256 6.56253 2.06694V1.03167C6.56253 0.941936 6.4594 0.892383 6.38976 0.947294L0.352261 5.66292C0.300946 5.70295 0.259434 5.75415 0.230882 5.81263C0.20233 5.87111 0.18749 5.93534 0.18749 6.00042C0.18749 6.0655 0.20233 6.12972 0.230882 6.18821C0.259434 6.24669 0.300946 6.29789 0.352261 6.33792Z" fill="black" fill-opacity="0.85"/>
</svg>
